<svg width="80" height="48" viewBox="0 0 80 48" fill="none" xmlns="http://www.w3.org/2000/svg">
<path d="M12.2616 18.2454L15.5813 21.5651" stroke="#00578A" stroke-width="0.986147" stroke-linecap="round" stroke-linejoin="round"/>
<path d="M15.5813 18.2454L12.2616 21.5651" stroke="#00578A" stroke-width="0.986147" stroke-linecap="round" stroke-linejoin="round"/>
<path d="M61.8164 12.1544L64.4136 14.7557" stroke="#00578A" stroke-width="0.986147" stroke-linecap="round" stroke-linejoin="round"/>
<path d="M64.4136 12.1544L61.8164 14.7557" stroke="#00578A" stroke-width="0.986147" stroke-linecap="round" stroke-linejoin="round"/>
<path d="M1 42.4081H11.3403" stroke="#00578A" stroke-width="0.738596" stroke-linecap="round" stroke-linejoin="round"/>
<path d="M70.424 42.4081H79.3521" stroke="#00578A" stroke-width="0.738596" stroke-linecap="round" stroke-linejoin="round"/>
<path d="M15.3255 42.4081H68.3259" stroke="#00578A" stroke-width="0.738596" stroke-linecap="round" stroke-linejoin="round"/>
<path d="M12.8541 46.8273H21.3196" stroke="#00578A" stroke-width="0.369298" stroke-linecap="round" stroke-linejoin="round"/>
<path d="M26.4735 46.8273H34.9471" stroke="#00578A" stroke-width="0.369298" stroke-linecap="round" stroke-linejoin="round"/>
<path d="M39.7844 46.8273H57.2347" stroke="#00578A" stroke-width="0.369298" stroke-linecap="round" stroke-linejoin="round"/>
<path d="M62.3805 46.8273H72.3109" stroke="#00578A" stroke-width="0.369298" stroke-linecap="round" stroke-linejoin="round"/>
<path d="M64.4136 24.7995C65.1308 24.7995 65.7122 24.2181 65.7122 23.5008C65.7122 22.7836 65.1308 22.2022 64.4136 22.2022C63.6964 22.2022 63.115 22.7836 63.115 23.5008C63.115 24.2181 63.6964 24.7995 64.4136 24.7995Z" fill="#F0F6F9" stroke="#00578A" stroke-width="0.986147" stroke-linecap="round" stroke-linejoin="round"/>
<path d="M29.4115 4.66661C30.1287 4.66661 30.7101 4.08518 30.7101 3.36797C30.7101 2.65076 30.1287 2.06934 29.4115 2.06934C28.6943 2.06934 28.1129 2.65076 28.1129 3.36797C28.1129 4.08518 28.6943 4.66661 29.4115 4.66661Z" fill="#F0F6F9" stroke="#00578A" stroke-width="0.986147" stroke-linecap="round" stroke-linejoin="round"/>
<path d="M59.3289 3.36774C59.3289 3.7819 59.2061 4.18674 58.976 4.53111C58.7459 4.87547 58.4189 5.14388 58.0363 5.30238C57.6536 5.46087 57.2325 5.50232 56.8263 5.42152C56.4201 5.34072 56.047 5.14131 55.7541 4.84845C55.4612 4.55559 55.2618 4.18249 55.181 3.77628C55.1002 3.37008 55.1417 2.94903 55.3002 2.5664C55.4587 2.18376 55.7271 1.85669 56.0714 1.6266C56.4158 1.3965 56.8207 1.27368 57.2348 1.27368C57.7902 1.27368 58.3228 1.49431 58.7155 1.88702C59.1082 2.27973 59.3289 2.81236 59.3289 3.36774Z" fill="#F0F6F9" stroke="#00578A" stroke-width="0.986147" stroke-linecap="round" stroke-linejoin="round"/>
<path d="M39.5817 25.4782L35.8828 21.7794L23.4374 34.2248L27.1363 37.9237L39.5817 25.4782Z" fill="#F0F6F9" stroke="#00578A" stroke-width="1.47313" stroke-linecap="round" stroke-linejoin="round"/>
<path d="M36.0103 21.6493L41.842 19.5147L39.7073 25.3464L36.0103 21.6493Z" fill="#F0F6F9" stroke="#00578A" stroke-width="1.47313" stroke-linecap="round" stroke-linejoin="round"/>
<path d="M26.9289 37.7153L23.6375 34.4239L19.6688 38.3926L22.9602 41.684L26.9289 37.7153Z" fill="#F0F6F9" stroke="#00578A" stroke-width="1.47313" stroke-linecap="round" stroke-linejoin="round"/>
<path d="M37.8608 23.501L25.2844 36.0734" stroke="#00578A" stroke-width="1.47313" stroke-linecap="round" stroke-linejoin="round"/>
<path d="M22.5896 33.378L27.9789 38.7673" stroke="#00578A" stroke-width="1.47313" stroke-linecap="round" stroke-linejoin="round"/>
<path d="M26.7697 26.4877V10.2913H54.321V37.8385H31.5098" fill="#F0F6F9"/>
<path d="M26.7697 26.4877V10.2913H54.321V37.8385H31.5098" stroke="#00578A" stroke-width="1.47313" stroke-linecap="round" stroke-linejoin="round"/>
</svg>
