<svg width="80" height="51" viewBox="0 0 80 51" fill="none" xmlns="http://www.w3.org/2000/svg">
<path d="M48.0088 15.3305C49.0308 11.0005 46.3491 6.66191 42.0191 5.63993C37.6891 4.61796 33.3504 7.29963 32.3285 11.6296C31.3065 15.9596 33.9882 20.2983 38.3182 21.3202C42.6482 22.3422 46.9868 19.6605 48.0088 15.3305Z" fill="#F0F6F9" stroke="#00578A" stroke-width="1.47313" stroke-linecap="round" stroke-linejoin="round"/>
<path d="M53.7326 39.5326V44.5323H26.6156V38.4896C26.6126 35.2721 27.754 32.1584 29.8356 29.705C31.9173 27.2516 34.8036 25.6185 37.9786 25.0975L40.0001 24.9998L42.3777 25.0975C45.1749 25.5567 47.7579 26.8808 49.7637 28.8838C50.1503 29.2686 50.5148 29.6751 50.8554 30.1012" fill="#F0F6F9"/>
<path d="M53.7326 39.5326V44.5323H26.6156V38.4896C26.6126 35.2721 27.754 32.1584 29.8356 29.705C31.9173 27.2516 34.8036 25.6185 37.9786 25.0975L40.0001 24.9998L42.3777 25.0975C45.1749 25.5567 47.7579 26.8808 49.7637 28.8838C50.1503 29.2686 50.5148 29.6751 50.8554 30.1012" stroke="#00578A" stroke-width="1.47313" stroke-linecap="round" stroke-linejoin="round"/>
<path d="M48.2338 0.955322L51.5574 4.279" stroke="#00578A" stroke-width="0.738596" stroke-linecap="round" stroke-linejoin="round"/>
<path d="M51.5574 0.955322L48.2338 4.279" stroke="#00578A" stroke-width="0.738596" stroke-linecap="round" stroke-linejoin="round"/>
<path d="M18.1297 18.243L21.4493 21.5667" stroke="#00578A" stroke-width="0.738596" stroke-linecap="round" stroke-linejoin="round"/>
<path d="M21.4493 18.243L18.1297 21.5667" stroke="#00578A" stroke-width="0.738596" stroke-linecap="round" stroke-linejoin="round"/>
<path d="M60.1404 14.0471L63.4641 17.3667" stroke="#00578A" stroke-width="0.986147" stroke-linecap="round" stroke-linejoin="round"/>
<path d="M63.4641 14.0471L60.1404 17.3667" stroke="#00578A" stroke-width="0.986147" stroke-linecap="round" stroke-linejoin="round"/>
<path d="M57.6892 31.335H54.3858V28.0357C54.397 27.8089 54.362 27.5823 54.2829 27.3695C54.2038 27.1566 54.0823 26.9621 53.9257 26.7976C53.7692 26.6332 53.5809 26.5023 53.3722 26.4128C53.1635 26.3233 52.9389 26.2772 52.7118 26.2772C52.4848 26.2772 52.2601 26.3233 52.0514 26.4128C51.8427 26.5023 51.6544 26.6332 51.4979 26.7976C51.3413 26.9621 51.2198 27.1566 51.1407 27.3695C51.0616 27.5823 51.0266 27.8089 51.0378 28.0357V31.335H47.7344C47.2899 31.335 46.8636 31.5116 46.5493 31.826C46.2349 32.1403 46.0583 32.5666 46.0583 33.0111C46.0583 33.4556 46.2349 33.8819 46.5493 34.1962C46.8636 34.5106 47.2899 34.6871 47.7344 34.6871H51.0378V37.9905C51.0266 38.2173 51.0616 38.4439 51.1407 38.6568C51.2198 38.8696 51.3413 39.0642 51.4979 39.2286C51.6544 39.393 51.8427 39.524 52.0514 39.6134C52.2601 39.7029 52.4848 39.749 52.7118 39.749C52.9389 39.749 53.1635 39.7029 53.3722 39.6134C53.5809 39.524 53.7692 39.393 53.9257 39.2286C54.0823 39.0642 54.2038 38.8696 54.2829 38.6568C54.362 38.4439 54.397 38.2173 54.3858 37.9905V34.6871H57.6892C58.1337 34.6871 58.56 34.5106 58.8743 34.1962C59.1887 33.8819 59.3652 33.4556 59.3652 33.0111C59.3652 32.5666 59.1887 32.1403 58.8743 31.826C58.56 31.5116 58.1337 31.335 57.6892 31.335Z" fill="#F0F6F9" stroke="#00578A" stroke-width="1.11601" stroke-linecap="round" stroke-linejoin="round"/>
<path d="M1 45.421H11.3403" stroke="#00578A" stroke-width="0.738596" stroke-linecap="round" stroke-linejoin="round"/>
<path d="M70.4199 45.421H79.3521" stroke="#00578A" stroke-width="0.738596" stroke-linecap="round" stroke-linejoin="round"/>
<path d="M15.3254 45.421H68.3258" stroke="#00578A" stroke-width="0.738596" stroke-linecap="round" stroke-linejoin="round"/>
<path d="M11.3242 49.8409H19.7897" stroke="#00578A" stroke-width="0.369298" stroke-linecap="round" stroke-linejoin="round"/>
<path d="M24.9434 49.8409H33.4169" stroke="#00578A" stroke-width="0.369298" stroke-linecap="round" stroke-linejoin="round"/>
<path d="M38.2544 49.8409H55.7047" stroke="#00578A" stroke-width="0.369298" stroke-linecap="round" stroke-linejoin="round"/>
<path d="M60.8506 49.8409H70.781" stroke="#00578A" stroke-width="0.369298" stroke-linecap="round" stroke-linejoin="round"/>
<path d="M70.4198 27.2241C70.4206 27.6393 70.2983 28.0453 70.0682 28.3909C69.8382 28.7364 69.5107 29.006 69.1274 29.1654C68.7441 29.3248 68.3222 29.367 67.9149 29.2865C67.5076 29.206 67.1334 29.0065 66.8396 28.7132C66.5458 28.4199 66.3455 28.0461 66.2642 27.639C66.183 27.2319 66.2243 26.8098 66.3829 26.4262C66.5416 26.0426 66.8105 25.7147 67.1557 25.484C67.5008 25.2533 67.9066 25.1301 68.3217 25.1301C68.5971 25.1295 68.8698 25.1833 69.1243 25.2883C69.3789 25.3933 69.6102 25.5475 69.8051 25.742C69.9999 25.9365 70.1545 26.1675 70.26 26.4218C70.3655 26.6762 70.4198 26.9488 70.4198 27.2241Z" fill="#F0F6F9" stroke="#00578A" stroke-width="0.986147" stroke-linecap="round" stroke-linejoin="round"/>
<path d="M27.0376 8.52415C27.0384 8.81345 26.9533 9.09646 26.7931 9.33733C26.6328 9.57821 26.4047 9.76608 26.1376 9.87716C25.8705 9.98824 25.5764 10.0175 25.2926 9.96127C25.0088 9.90503 24.7481 9.76581 24.5436 9.56125C24.339 9.35668 24.1998 9.096 24.1435 8.81222C24.0873 8.52845 24.1166 8.23436 24.2276 7.96724C24.3387 7.70012 24.5266 7.47201 24.7675 7.31179C25.0084 7.15157 25.2914 7.06646 25.5807 7.06727C25.9667 7.06834 26.3367 7.22214 26.6097 7.49513C26.8826 7.76812 27.0365 8.13809 27.0376 8.52415Z" fill="#F0F6F9" stroke="#00578A" stroke-width="0.685839" stroke-linecap="round" stroke-linejoin="round"/>
</svg>
