<svg width="80" height="48" viewBox="0 0 80 48" fill="none" xmlns="http://www.w3.org/2000/svg">
<path d="M0.526855 42.6162H10.8672" stroke="#00578A" stroke-width="0.738596" stroke-linecap="round" stroke-linejoin="round"/>
<path d="M69.9468 42.6162H78.8789" stroke="#00578A" stroke-width="0.738596" stroke-linecap="round" stroke-linejoin="round"/>
<path d="M14.8525 42.6162H67.8529" stroke="#00578A" stroke-width="0.738596" stroke-linecap="round" stroke-linejoin="round"/>
<path d="M12.3809 47.0361H20.8463" stroke="#00578A" stroke-width="0.369298" stroke-linecap="round" stroke-linejoin="round"/>
<path d="M26.0005 47.0361H34.47" stroke="#00578A" stroke-width="0.369298" stroke-linecap="round" stroke-linejoin="round"/>
<path d="M39.3115 47.0361H56.7619" stroke="#00578A" stroke-width="0.369298" stroke-linecap="round" stroke-linejoin="round"/>
<path d="M61.9075 47.0361H71.8339" stroke="#00578A" stroke-width="0.369298" stroke-linecap="round" stroke-linejoin="round"/>
<path d="M67.4107 18.6124C68.4843 18.6124 69.3546 17.7421 69.3546 16.6685C69.3546 15.5949 68.4843 14.7246 67.4107 14.7246C66.3371 14.7246 65.4668 15.5949 65.4668 16.6685C65.4668 17.7421 66.3371 18.6124 67.4107 18.6124Z" fill="#F0F6F9" stroke="#00578A" stroke-width="1.36356" stroke-linecap="round" stroke-linejoin="round"/>
<path d="M14.5279 27.3454C15.1734 27.3454 15.6967 26.8221 15.6967 26.1767C15.6967 25.5312 15.1734 25.0079 14.5279 25.0079C13.8824 25.0079 13.3591 25.5312 13.3591 26.1767C13.3591 26.8221 13.8824 27.3454 14.5279 27.3454Z" fill="#F0F6F9" stroke="#00578A" stroke-width="0.986147" stroke-linecap="round" stroke-linejoin="round"/>
<path d="M19.5195 3.63257L23.7482 7.86526" stroke="#00578A" stroke-width="0.986147" stroke-linecap="round" stroke-linejoin="round"/>
<path d="M23.7482 3.63257L19.5195 7.86526" stroke="#00578A" stroke-width="0.986147" stroke-linecap="round" stroke-linejoin="round"/>
<path d="M52.3223 1.00781L54.7369 3.4265" stroke="#00578A" stroke-width="0.986147" stroke-linecap="round" stroke-linejoin="round"/>
<path d="M54.7369 1.00781L52.3223 3.4265" stroke="#00578A" stroke-width="0.986147" stroke-linecap="round" stroke-linejoin="round"/>
<path d="M41.3529 41.93C51.3446 41.93 59.4444 33.8302 59.4444 23.8385C59.4444 13.8468 51.3446 5.74695 41.3529 5.74695C31.3612 5.74695 23.2614 13.8468 23.2614 23.8385C23.2614 33.8302 31.3612 41.93 41.3529 41.93Z" fill="#F0F6F9" stroke="#00578A" stroke-width="1.47313" stroke-linecap="round" stroke-linejoin="round"/>
<path d="M41.3527 37.8924C49.1143 37.8924 55.4063 31.6004 55.4063 23.8388C55.4063 16.0772 49.1143 9.78516 41.3527 9.78516C33.5911 9.78516 27.2991 16.0772 27.2991 23.8388C27.2991 31.6004 33.5911 37.8924 41.3527 37.8924Z" fill="#F0F6F9" stroke="#00578A" stroke-width="1.47313" stroke-linecap="round" stroke-linejoin="round"/>
<path d="M41.3527 23.839V13.385" stroke="#00578A" stroke-width="1.47313" stroke-linecap="round" stroke-linejoin="round"/>
<path d="M41.3527 23.8387L45.3622 19.8292" stroke="#00578A" stroke-width="1.47313" stroke-linecap="round" stroke-linejoin="round"/>
</svg>
