<svg width="80" height="48" viewBox="0 0 80 48" fill="none" xmlns="http://www.w3.org/2000/svg">
<path d="M1 42.4297H11.3403" stroke="#00578A" stroke-width="0.738596" stroke-linecap="round" stroke-linejoin="round"/>
<path d="M70.4241 42.4297H79.3522" stroke="#00578A" stroke-width="0.738596" stroke-linecap="round" stroke-linejoin="round"/>
<path d="M15.3254 42.4297H68.3258" stroke="#00578A" stroke-width="0.738596" stroke-linecap="round" stroke-linejoin="round"/>
<path d="M12.8541 46.8535H21.3196" stroke="#00578A" stroke-width="0.369298" stroke-linecap="round" stroke-linejoin="round"/>
<path d="M26.4735 46.8535H34.9471" stroke="#00578A" stroke-width="0.369298" stroke-linecap="round" stroke-linejoin="round"/>
<path d="M39.7844 46.8535H57.2347" stroke="#00578A" stroke-width="0.369298" stroke-linecap="round" stroke-linejoin="round"/>
<path d="M62.3805 46.8535H72.3109" stroke="#00578A" stroke-width="0.369298" stroke-linecap="round" stroke-linejoin="round"/>
<path d="M56.1473 2.66329C56.1473 3.05176 56.0321 3.43149 55.8162 3.7545C55.6004 4.07751 55.2937 4.32928 54.9347 4.47794C54.5758 4.62661 54.1809 4.66549 53.7999 4.5897C53.4189 4.51391 53.0689 4.32685 52.7942 4.05216C52.5195 3.77746 52.3325 3.42748 52.2567 3.04647C52.1809 2.66545 52.2198 2.27051 52.3684 1.91161C52.5171 1.5527 52.7688 1.24594 53.0918 1.03011C53.4148 0.814288 53.7946 0.699097 54.183 0.699097C54.704 0.699097 55.2037 0.906036 55.572 1.27439C55.9404 1.64275 56.1473 2.14235 56.1473 2.66329Z" fill="#F0F6F9" stroke="#00578A" stroke-width="0.986147" stroke-linecap="round" stroke-linejoin="round"/>
<path d="M22.9552 24.5373C22.956 24.9259 22.8415 25.3061 22.6261 25.6296C22.4108 25.9532 22.1044 26.2055 21.7455 26.3548C21.3867 26.5041 20.9916 26.5436 20.6103 26.4683C20.229 26.3929 19.8787 26.2062 19.6036 25.9317C19.3285 25.6571 19.141 25.3072 19.0649 24.926C18.9888 24.5449 19.0274 24.1498 19.176 23.7906C19.3245 23.4315 19.5762 23.1245 19.8993 22.9085C20.2224 22.6925 20.6024 22.5771 20.9911 22.5771C21.5113 22.5771 22.0102 22.7835 22.3785 23.151C22.7467 23.5185 22.9541 24.017 22.9552 24.5373Z" fill="#F0F6F9" stroke="#00578A" stroke-width="0.986147" stroke-linecap="round" stroke-linejoin="round"/>
<path d="M54.1829 20.7961C54.1829 25.2358 48.5014 35.1094 45.1656 40.4703C44.9225 40.8647 44.5825 41.1904 44.178 41.4162C43.7734 41.6421 43.3178 41.7606 42.8545 41.7606C42.3912 41.7606 41.9356 41.6421 41.531 41.4162C41.1265 41.1904 40.7864 40.8647 40.5433 40.4703C37.2318 35.1094 31.526 25.2358 31.526 20.7961C31.5821 17.8287 32.8003 15.0018 34.9187 12.9231C37.0371 10.8444 39.8866 9.67993 42.8545 9.67993C45.8224 9.67993 48.6718 10.8444 50.7902 12.9231C52.9086 15.0018 54.1268 17.8287 54.1829 20.7961Z" fill="#F0F6F9" stroke="#00578A" stroke-width="1.47313" stroke-linecap="round" stroke-linejoin="round"/>
<path d="M44.9849 25.2443C47.8383 24.074 49.2027 20.8123 48.0325 17.9589C46.8622 15.1055 43.6004 13.7411 40.7471 14.9113C37.8937 16.0816 36.5293 19.3434 37.6995 22.1967C38.8698 25.0501 42.1316 26.4145 44.9849 25.2443Z" fill="#F0F6F9" stroke="#00578A" stroke-width="1.47313" stroke-linecap="round" stroke-linejoin="round"/>
<path d="M15.8977 5.63867L18.2759 8.01679" stroke="#00578A" stroke-width="0.986147" stroke-linecap="round" stroke-linejoin="round"/>
<path d="M18.2759 5.63867L15.8977 8.01679" stroke="#00578A" stroke-width="0.986147" stroke-linecap="round" stroke-linejoin="round"/>
<path d="M39.3501 1.47461L41.7283 3.85273" stroke="#00578A" stroke-width="0.986147" stroke-linecap="round" stroke-linejoin="round"/>
<path d="M41.7283 1.47461L39.3501 3.85273" stroke="#00578A" stroke-width="0.986147" stroke-linecap="round" stroke-linejoin="round"/>
<path d="M64.1703 21.3885L66.5483 23.7667" stroke="#00578A" stroke-width="0.986147" stroke-linecap="round" stroke-linejoin="round"/>
<path d="M66.5483 21.3885L64.1703 23.7667" stroke="#00578A" stroke-width="0.986147" stroke-linecap="round" stroke-linejoin="round"/>
</svg>
