<svg width="220" height="74" viewBox="0 0 220 74" fill="none" xmlns="http://www.w3.org/2000/svg">
<path d="M207.434 20.5997V35.4879L185.882 35.4918V20.5997H179.339V42.7201H180.102C187.882 42.7163 195.661 42.7086 203.44 42.697C204.952 42.695 206.464 42.6906 207.976 42.6861C210.026 42.68 212.076 42.6739 214.127 42.674V45.2387H220V35.4273H214.189C214.105 35.2977 214.105 35.0652 214.105 34.648V21.4801C214.105 21.2677 214.092 21.0534 214.079 20.8505C214.074 20.7645 214.069 20.6806 214.065 20.5997H207.434Z" fill="#00578A"/>
<path d="M131.683 29.3058V42.6517H125.08V20.607C126.815 20.607 128.525 20.607 130.234 20.6166C130.472 20.6532 130.702 20.7333 130.912 20.8529C136.806 23.3593 142.696 25.8727 148.582 28.3932C148.818 28.5045 149.075 28.5602 149.336 28.5558C149.596 28.5515 149.851 28.4874 150.083 28.3683C155.785 25.8439 161.494 23.3369 167.211 20.8472C167.563 20.698 167.94 20.6177 168.322 20.6108C169.867 20.5859 171.409 20.6108 173.011 20.6108V42.6805H166.44V29.3788C166.081 29.5229 165.839 29.6112 165.606 29.715C160.455 31.9947 155.307 34.2795 150.163 36.5695C149.934 36.6899 149.68 36.7553 149.422 36.7606C149.164 36.766 148.908 36.7111 148.674 36.6002C143.312 34.2667 137.942 31.9498 132.563 29.6496C132.304 29.5286 132.034 29.4402 131.683 29.3058Z" fill="#00578A"/>
<path d="M84.1494 20.5997H119.004V21.6745C119.004 23.3925 118.968 25.1106 119.019 26.8286C119.042 27.5521 118.788 27.7048 118.109 27.7029C109.34 27.6825 100.57 27.678 91.8004 27.6895H90.7486V42.4112H84.1494V20.5997Z" fill="#00578A"/>
<path d="M84.0146 53.5864V49.1433H87.246V49.7885H84.8372V53.5864H84.0146Z" fill="#151515"/>
<path d="M90.0741 53.5857C89.6763 53.5955 89.283 53.4999 88.9351 53.3089C88.6132 53.1228 88.3532 52.8481 88.1868 52.5185C88.0009 52.1399 87.9094 51.723 87.9199 51.3024C87.9084 50.8786 87.9999 50.4583 88.1868 50.0767C88.3532 49.747 88.6132 49.4724 88.9351 49.2863C89.2826 49.0944 89.6762 48.9988 90.0741 49.0095C90.4733 48.9995 90.8679 49.0951 91.217 49.2863C91.5397 49.4708 91.7996 49.7459 91.9634 50.0767C92.1473 50.4558 92.2374 50.8726 92.2264 51.2928C92.2378 51.7161 92.1477 52.1361 91.9634 52.5185C91.7996 52.8492 91.5397 53.1244 91.217 53.3089C90.8675 53.4992 90.4732 53.5947 90.0741 53.5857ZM90.0741 52.9519C90.257 52.9584 90.4389 52.924 90.6063 52.8513C90.7738 52.7785 90.9224 52.6693 91.041 52.5319C91.2847 52.2493 91.4065 51.8363 91.4065 51.2928C91.4065 50.7493 91.2847 50.3395 91.041 50.0633C90.9211 49.9279 90.7721 49.8205 90.6048 49.7492C90.4375 49.6778 90.2562 49.6443 90.0741 49.6509C89.892 49.644 89.7106 49.6774 89.5433 49.7488C89.376 49.8202 89.227 49.9277 89.1073 50.0633C88.8675 50.3382 88.7476 50.7481 88.7476 51.2928C88.7476 51.8376 88.8675 52.2506 89.1073 52.5319C89.2257 52.6696 89.3743 52.7789 89.5418 52.8516C89.7092 52.9244 89.8913 52.9587 90.0741 52.9519Z" fill="#151515"/>
<path d="M93.5124 55.4713V50.1458C93.5124 49.9741 93.5124 49.7985 93.4927 49.621C93.473 49.4435 93.4631 49.266 93.4395 49.0884H94.2281L94.3267 50.1188H94.2281C94.311 49.7868 94.5178 49.497 94.8078 49.3065C95.1217 49.1029 95.4921 48.9992 95.8685 49.0093C96.2417 49.0012 96.6095 49.0969 96.9293 49.2853C97.2386 49.476 97.4835 49.7518 97.6332 50.0783C97.8077 50.4684 97.8925 50.8913 97.8816 51.3171C97.8923 51.744 97.8075 52.1681 97.6332 52.5597C97.4848 52.8884 97.2398 53.1665 96.9293 53.3585C96.6095 53.5468 96.2417 53.6426 95.8685 53.6344C95.4966 53.643 95.1311 53.5392 94.8216 53.3373C94.5341 53.1452 94.3248 52.8604 94.2301 52.5327H94.3287V55.4713H93.5124ZM95.6812 52.9938C95.8695 53.0013 96.057 52.967 96.2298 52.8935C96.4026 52.82 96.5561 52.7092 96.6789 52.5693C96.926 52.2837 97.0496 51.8663 97.0496 51.3171C97.0496 50.7678 96.926 50.3536 96.6789 50.0744C96.5548 49.9366 96.4009 49.8277 96.2282 49.7556C96.0556 49.6835 95.8687 49.65 95.6812 49.6576C95.4955 49.6506 95.3106 49.6844 95.14 49.7566C94.9694 49.8287 94.8175 49.9373 94.6954 50.0744C94.4509 50.3523 94.3287 50.7665 94.3287 51.3171C94.3287 51.8676 94.4509 52.285 94.6954 52.5693C94.817 52.7095 94.9698 52.8207 95.142 52.8943C95.3142 52.9678 95.5014 53.0019 95.6891 52.9938H95.6812Z" fill="#151515"/>
<path d="M100.978 53.5857C100.58 53.5952 100.187 53.4997 99.839 53.3089C99.5183 53.1219 99.2591 52.8474 99.0925 52.5185C98.9067 52.1399 98.8152 51.723 98.8257 51.3024C98.8141 50.8786 98.9056 50.4583 99.0925 50.0766C99.2591 49.7477 99.5183 49.4733 99.839 49.2863C100.187 49.0947 100.58 48.999 100.978 49.0094C101.377 48.9993 101.772 49.0949 102.121 49.2863C102.444 49.4708 102.705 49.7458 102.869 50.0766C103.053 50.456 103.143 50.8727 103.132 51.2928C103.143 51.716 103.053 52.1358 102.869 52.5185C102.705 52.8493 102.444 53.1244 102.121 53.3089C101.772 53.4995 101.377 53.595 100.978 53.5857ZM100.978 52.9519C101.161 52.9584 101.343 52.924 101.51 52.8513C101.678 52.7786 101.826 52.6694 101.945 52.5319C102.187 52.2493 102.309 51.8363 102.309 51.2928C102.309 50.7493 102.187 50.3395 101.945 50.0633C101.825 49.928 101.676 49.8207 101.509 49.7494C101.341 49.678 101.16 49.6444 100.978 49.6509C100.796 49.6438 100.614 49.6772 100.447 49.7486C100.28 49.82 100.131 49.9275 100.011 50.0633C99.77 50.3382 99.6495 50.7481 99.6495 51.2928C99.6495 51.8376 99.77 52.2506 100.011 52.5319C100.129 52.6697 100.278 52.7791 100.446 52.8519C100.613 52.9247 100.795 52.9588 100.978 52.9519Z" fill="#151515"/>
<path d="M104.076 54.6635V52.9119H104.564C104.774 52.5922 104.923 52.2377 105.004 51.8655C105.102 51.3947 105.148 50.9148 105.141 50.4343V49.1433H108.347V52.9119H109.057V54.6635H108.364V53.5261H104.769V54.6635H104.076ZM105.328 52.9195H107.592V49.7575H105.855V50.5784C105.856 51.0101 105.812 51.4409 105.722 51.8636C105.646 52.2345 105.51 52.591 105.319 52.9195H105.328Z" fill="#151515"/>
<path d="M112.093 53.5857C111.681 53.5958 111.275 53.5003 110.914 53.3088C110.581 53.1222 110.312 52.8438 110.141 52.5088C109.948 52.1221 109.854 51.6957 109.866 51.2659C109.854 50.8443 109.95 50.4263 110.145 50.0498C110.324 49.7229 110.597 49.4541 110.931 49.2765C111.29 49.0923 111.691 49.0003 112.097 49.0093C112.389 49.0086 112.68 49.0577 112.955 49.1544C113.212 49.2386 113.445 49.3813 113.633 49.5706L113.354 50.1338C113.189 49.975 112.991 49.8509 112.774 49.7691C112.576 49.6928 112.365 49.6527 112.152 49.6507C111.956 49.6409 111.76 49.6731 111.579 49.745C111.398 49.817 111.235 49.9269 111.102 50.0669C110.849 50.3457 110.723 50.7485 110.723 51.2755C110.693 51.7164 110.828 52.153 111.102 52.505C111.233 52.6487 111.395 52.762 111.576 52.8363C111.758 52.9107 111.955 52.9443 112.152 52.9346C112.362 52.9323 112.57 52.8935 112.767 52.8201C112.986 52.7405 113.187 52.6184 113.356 52.4611L113.635 53.0148C113.443 53.2087 113.206 53.3548 112.943 53.4406C112.67 53.5358 112.383 53.5849 112.093 53.5857Z" fill="#151515"/>
<path d="M114.712 53.5864V49.1433H115.513V50.9809H116.329L117.777 49.1433H118.663L116.982 51.3015L116.768 51.0557C116.924 51.0683 117.076 51.1114 117.215 51.1824C117.351 51.2607 117.473 51.3606 117.577 51.4781C117.718 51.6414 117.844 51.8161 117.955 52.0004L118.886 53.5807H118.01L117.196 52.2116C117.124 52.0765 117.034 51.9519 116.928 51.8411C116.845 51.7544 116.742 51.6886 116.628 51.649C116.493 51.6111 116.353 51.5936 116.212 51.5972H115.513V53.5749L114.712 53.5864Z" fill="#151515"/>
<path d="M121.714 53.5857C121.316 53.5955 120.922 53.4999 120.574 53.3089C120.252 53.1228 119.992 52.8481 119.826 52.5185C119.64 52.1397 119.55 51.7228 119.561 51.3024C119.548 50.8788 119.639 50.4585 119.826 50.0767C119.992 49.747 120.252 49.4724 120.574 49.2863C120.922 49.0944 121.316 48.9988 121.714 49.0095C122.113 48.9993 122.508 49.0949 122.857 49.2863C123.18 49.4708 123.44 49.7459 123.604 50.0767C123.788 50.4558 123.878 50.8726 123.867 51.2928C123.878 51.7161 123.788 52.1361 123.604 52.5185C123.44 52.8492 123.18 53.1244 122.857 53.3089C122.508 53.4994 122.113 53.5949 121.714 53.5857ZM121.714 52.9519C121.897 52.9584 122.079 52.924 122.246 52.8513C122.414 52.7785 122.562 52.6693 122.681 52.5319C122.925 52.2493 123.047 51.8363 123.047 51.2928C123.047 50.7493 122.925 50.3395 122.681 50.0633C122.561 49.9279 122.412 49.8205 122.245 49.7492C122.077 49.6778 121.896 49.6443 121.714 49.6509C121.532 49.644 121.35 49.6774 121.183 49.7488C121.015 49.8202 120.866 49.9277 120.747 50.0633C120.507 50.3382 120.387 50.7481 120.387 51.2928C120.387 51.8376 120.507 52.2506 120.747 52.5319C120.865 52.6696 121.014 52.7789 121.181 52.8516C121.349 52.9244 121.531 52.9587 121.714 52.9519Z" fill="#151515"/>
<path d="M125.08 53.5767V49.1232H125.835V52.8261H125.588L128.428 49.1328H129.119V53.5863H128.363V49.8853H128.618L125.77 53.5863L125.08 53.5767ZM127.099 48.7171C126.853 48.7199 126.609 48.6747 126.381 48.5843C126.167 48.4989 125.976 48.3673 125.821 48.1993C125.657 48.0166 125.538 47.8001 125.471 47.5661L125.944 47.3968C126.025 47.6436 126.18 47.8614 126.389 48.0223C126.599 48.1582 126.847 48.2256 127.099 48.2148C127.353 48.2225 127.603 48.1554 127.817 48.0223C128.036 47.8589 128.206 47.6416 128.31 47.3929L128.755 47.5527C128.639 47.9067 128.408 48.2141 128.096 48.4284C127.801 48.619 127.454 48.7195 127.099 48.7171Z" fill="#151515"/>
<path d="M133.023 53.5864V49.1433H133.705L135.378 52.0503L137.058 49.1433H137.736V53.5864H137.013V50.0457H137.209L135.58 52.8721H135.175L133.548 50.0361H133.745V53.5864H133.023Z" fill="#151515"/>
<path d="M141.241 53.5864C140.533 53.5864 139.973 53.384 139.562 52.9792C139.152 52.5763 138.948 52.0245 138.948 51.3104C138.937 50.8893 139.03 50.4719 139.218 50.0942C139.386 49.7633 139.646 49.4866 139.967 49.2961C140.304 49.1004 140.69 49.0013 141.081 49.0097C141.444 48.9977 141.804 49.0877 142.117 49.2694C142.403 49.4425 142.629 49.6984 142.764 50.0026C142.92 50.3569 142.996 50.7407 142.986 51.1272V51.3907H139.576V50.9152H142.437L142.287 51.0298C142.31 50.651 142.202 50.2757 141.981 49.9663C141.871 49.8375 141.733 49.7358 141.577 49.6695C141.421 49.6032 141.251 49.5741 141.081 49.5845C140.891 49.5744 140.701 49.6092 140.527 49.6863C140.353 49.7633 140.2 49.8802 140.08 50.0274C139.83 50.3789 139.706 50.8042 139.73 51.2341V51.3143C139.73 51.8527 139.865 52.2594 140.134 52.5343C140.282 52.6764 140.458 52.7863 140.651 52.8573C140.844 52.9283 141.049 52.9588 141.255 52.9467C141.507 52.9493 141.758 52.9113 141.998 52.8341C142.242 52.7495 142.467 52.62 142.662 52.4522L142.928 53.0059C142.711 53.1964 142.455 53.3395 142.179 53.426C141.878 53.531 141.561 53.5852 141.241 53.5864Z" fill="#151515"/>
<path d="M143.794 54.6635V52.9119H144.295C144.51 52.5922 144.663 52.2377 144.746 51.8655C144.847 51.3947 144.894 50.9148 144.887 50.4343V49.1433H148.183V52.9119H148.911V54.6635H148.183V53.5261H144.515V54.6635H143.794ZM145.078 52.9195H147.391V49.7575H145.611V50.5784C145.612 51.0101 145.566 51.4409 145.474 51.8636C145.402 52.2335 145.268 52.5899 145.078 52.9195Z" fill="#151515"/>
<path d="M149.853 53.5768V49.1433H150.609V52.8296H150.363L153.202 49.1529H153.892V53.5864H153.137V49.902H153.392L150.545 53.5864L149.853 53.5768Z" fill="#151515"/>
<path d="M159.261 54.7981V53.6338H155.374V49.1433H156.178V53.0012H158.431V49.1433H159.236V53.0012H159.951V54.7943L159.261 54.7981Z" fill="#151515"/>
<path d="M161.028 53.5768V49.1433H161.784V52.8296H161.538L164.376 49.1529H165.067V53.5864H164.312V49.902H164.567L161.72 53.5864L161.028 53.5768Z" fill="#151515"/>
<path d="M166.548 53.5864V49.1433H167.368V50.9809H169.774V49.1433H170.588V53.5864H169.774V51.6164H167.368V53.5864H166.548Z" fill="#151515"/>
<path d="M174.032 53.5857C173.62 53.5958 173.213 53.5003 172.851 53.3088C172.517 53.1228 172.248 52.8442 172.078 52.5088C171.884 52.1222 171.788 51.6959 171.8 51.2659C171.788 50.8441 171.885 50.4261 172.082 50.0498C172.259 49.7248 172.529 49.4563 172.859 49.2765C173.219 49.0923 173.621 49.0003 174.028 49.0093C174.321 49.0086 174.612 49.0577 174.888 49.1544C175.146 49.2386 175.378 49.3813 175.567 49.5706L175.286 50.1338C175.12 49.9754 174.924 49.8513 174.707 49.7691C174.508 49.6927 174.296 49.6525 174.081 49.6507C173.886 49.6412 173.69 49.6735 173.509 49.7455C173.328 49.8174 173.165 49.9271 173.032 50.0669C172.778 50.3457 172.651 50.7485 172.653 51.2755C172.622 51.7164 172.757 52.153 173.032 52.505C173.163 52.6485 173.325 52.7617 173.506 52.8361C173.688 52.9105 173.884 52.9441 174.081 52.9346C174.292 52.9327 174.501 52.8939 174.697 52.8201C174.917 52.741 175.118 52.6188 175.288 52.4611L175.569 53.0148C175.377 53.2087 175.139 53.3548 174.876 53.4406C174.605 53.5347 174.32 53.5837 174.032 53.5857Z" fill="#151515"/>
<path d="M176.646 53.5864V49.1433H177.461V50.9809H178.275L179.722 49.1433H180.607L178.918 51.3015L178.702 51.0557C178.858 51.0679 179.01 51.111 179.149 51.1824C179.286 51.2602 179.409 51.3601 179.513 51.4781C179.652 51.6423 179.779 51.8169 179.891 52.0004L180.82 53.5807H179.946L179.132 52.2116C179.06 52.0765 178.97 51.9519 178.864 51.8411C178.781 51.7544 178.678 51.6886 178.564 51.649C178.429 51.6112 178.289 51.5938 178.149 51.5972H177.461V53.5749L176.646 53.5864Z" fill="#151515"/>
<path d="M181.628 53.5768V49.1433H182.383V52.8296H182.138L184.975 49.1529H185.667V53.5864H184.922V49.902H185.177L182.33 53.5864L181.628 53.5768Z" fill="#151515"/>
<path d="M187.148 53.5767V49.1287H187.902V52.8271H187.661L190.496 49.1383H191.187V53.5863H190.427V49.8899H190.681L187.837 53.5863L187.148 53.5767ZM189.165 48.7231C188.921 48.7277 188.678 48.6852 188.452 48.5982C188.238 48.5124 188.047 48.3811 187.893 48.2137C187.73 48.0302 187.611 47.8144 187.543 47.5813L188.015 47.4122C188.097 47.6521 188.249 47.8637 188.452 48.0215C188.66 48.1578 188.908 48.2252 189.159 48.2137C189.413 48.2217 189.663 48.1547 189.878 48.0215C190.096 47.8587 190.265 47.6415 190.367 47.3929L190.814 47.5525C190.698 47.9062 190.466 48.2134 190.154 48.4271C189.862 48.6192 189.517 48.7222 189.165 48.7231Z" fill="#151515"/>
<path d="M198.981 54.7981V53.6338H195.092V49.1433H195.897V53.0012H198.149V49.1433H198.954V53.0012H199.67V54.7943L198.981 54.7981Z" fill="#151515"/>
<path d="M202.773 53.5864C202.064 53.5864 201.505 53.3842 201.095 52.98C200.683 52.5776 200.479 52.0265 200.479 51.3133C200.466 50.8912 200.558 50.4724 200.744 50.0929C200.914 49.7628 201.173 49.4866 201.494 49.2958C201.832 49.0999 202.219 49.0009 202.611 49.0097C202.974 48.9977 203.333 49.0876 203.647 49.2691C203.933 49.4431 204.158 49.6983 204.294 50.0013C204.449 50.3555 204.525 50.7387 204.516 51.1245V51.3877H201.109V50.9129H203.969L203.819 51.0272C203.842 50.6489 203.734 50.2741 203.512 49.9651C203.403 49.8365 203.265 49.7349 203.109 49.6687C202.954 49.6025 202.784 49.5734 202.615 49.5837C202.424 49.5735 202.234 49.6083 202.06 49.6852C201.886 49.7622 201.733 49.879 201.613 50.0261C201.36 50.3761 201.235 50.8013 201.259 51.2313V51.3114C201.259 51.8491 201.392 52.2649 201.661 52.5299C201.809 52.6715 201.985 52.7811 202.178 52.852C202.371 52.9229 202.577 52.9535 202.782 52.9418C203.035 52.9446 203.286 52.9066 203.526 52.8293C203.77 52.7449 203.995 52.6155 204.19 52.448L204.456 53.0009C204.239 53.1908 203.985 53.3337 203.709 53.4205C203.408 53.5269 203.092 53.583 202.773 53.5864Z" fill="#151515"/>
<path d="M205.729 53.5864V49.1433H206.538V50.9809H208.951V49.1433H209.768V53.5864H208.951V51.6164H206.538V53.5864H205.729Z" fill="#151515"/>
<path d="M212.194 53.5864V49.7885H210.575V49.1433H214.614V49.7885H212.998V53.5864H212.194Z" fill="#151515"/>
<path d="M215.495 55.4713V50.1458C215.495 49.9741 215.495 49.7985 215.477 49.621C215.46 49.4435 215.446 49.266 215.422 49.0884H216.219L216.317 50.1188H216.219C216.301 49.7868 216.508 49.497 216.797 49.3065C217.111 49.1029 217.481 48.9992 217.857 49.0093C218.229 49.0012 218.596 49.0969 218.915 49.2853C219.223 49.4761 219.466 49.752 219.615 50.0783C219.79 50.468 219.876 50.8911 219.864 51.3171C219.876 51.7443 219.79 52.1686 219.615 52.5597C219.467 52.8882 219.224 53.1663 218.915 53.3585C218.596 53.5468 218.229 53.6426 217.857 53.6344C217.485 53.6433 217.12 53.5395 216.811 53.3373C216.524 53.1452 216.315 52.8604 216.221 52.5327H216.319V55.4713H215.495ZM217.658 52.9938C217.846 53.0013 218.033 52.967 218.205 52.8935C218.378 52.82 218.531 52.7092 218.653 52.5693C218.901 52.2837 219.023 51.867 219.023 51.3171C219.023 50.7671 218.901 50.3523 218.653 50.0745C218.529 49.9366 218.376 49.8277 218.204 49.7556C218.032 49.6835 217.845 49.65 217.658 49.6576C217.473 49.6506 217.289 49.6844 217.118 49.7566C216.948 49.8287 216.797 49.9373 216.675 50.0745C216.426 50.3484 216.301 50.7626 216.301 51.3171C216.301 51.8715 216.423 52.2889 216.667 52.5693C216.789 52.7106 216.943 52.8224 217.116 52.896C217.289 52.9696 217.477 53.0031 217.666 52.9938H217.658Z" fill="#151515"/>
<path d="M11.1779 44.9412C11.0957 42.8942 12.6727 41.7965 13.3893 44.8056C14.1059 47.8146 15.0793 54.5288 15.0793 54.5288C15.0793 54.5288 11.296 53.8661 11.3371 53.5974C11.3782 53.3288 11.1779 44.9412 11.1779 44.9412Z" fill="#00578A"/>
<path d="M7.54329 40.0183C7.44266 37.491 9.39853 36.1471 10.2862 39.85C11.1738 43.5529 12.3866 51.8359 12.3866 51.8359C12.3866 51.8359 7.69036 51.0199 7.74197 50.6883C7.79357 50.3568 7.54329 40.0183 7.54329 40.0183Z" fill="#007D99"/>
<path d="M3.88717 36.3913C3.7761 33.5803 5.90663 32.0802 6.87092 36.2048C7.83521 40.3293 9.15543 49.5471 9.15543 49.5471C9.15543 49.5471 3.04152 43.1583 3.09706 42.7954C3.15259 42.4325 3.88717 36.3913 3.88717 36.3913Z" fill="#01A6A0"/>
<path d="M28.5761 73.1088C27.7131 59.5524 13.6372 59.4666 7.5942 54.6586C1.5512 49.8506 0.223634 37.5778 0.596374 34.8242C0.969115 32.0705 2.43199 30.7104 3.64723 34.5563C4.86246 38.4022 5.99855 45.3284 10.5838 48.5286C15.169 51.7289 23.7603 52.15 18.8709 48.6154C12.4883 44.0013 13.5936 39.5415 15.1096 38.6089C16.269 37.8958 18.9832 42.8886 22.7642 44.9277C26.5453 46.9668 32.2019 48.5708 34.8188 54.9228C37.7936 62.1437 28.5761 73.1088 28.5761 73.1088Z" fill="#00C6BF"/>
<path d="M57.2616 6.02669C53.0957 3.18118 46.1738 1.55301 39.3819 5.92464C36.6284 8.54812 34.3134 12.1031 32.7531 16.7197C32.7531 16.7197 24.768 7.92789 11.9924 12.7232C-0.783225 17.5184 0.00966736 31.3709 0.00966736 31.3709C0.00966736 31.3709 3.68607 20.0909 15.9798 19.3764C28.2736 18.6618 34.6748 30.5146 34.6748 30.5146C34.6748 30.5146 36.2357 18.506 47.3848 15.6478C57.667 13.0217 63.8547 21.1041 61.2542 31.1642C65.6852 20.9254 63.8827 10.5463 57.2616 6.02669Z" fill="#00578A"/>
<path d="M52.2397 48.9838C52.2397 48.9838 41.7143 36.4878 23.1577 43.1605C23.1577 43.1605 32.6409 42.9594 36.96 53.7894C39.6477 60.5283 33.1249 70.4161 33.1249 70.4161C33.1249 70.4161 44.5938 60.9895 52.2397 48.9838Z" fill="#00578A"/>
<path d="M71.3447 8.42509C65.0529 -0.83138 49.3259 -3.57641 39.3524 5.89651C46.1494 1.53438 53.0765 3.15902 57.2455 5.99835C63.8792 10.5082 65.6652 20.8545 61.2512 31.0863C60.9796 32.1239 60.6317 33.1402 60.2103 34.1268C55.9596 44.1294 50.8874 50.4956 50.8874 50.4956C43.4653 61.7001 32.8521 70.5508 32.8521 70.5508C73.9606 53.3264 82.1295 24.305 71.3447 8.42509Z" fill="#00C6BF"/>
<path style="mix-blend-mode:multiply" opacity="0.29" d="M56.6412 16.5776C62.147 19.9569 62.2475 26.7864 61.134 31.1016C65.5422 20.8724 63.7449 10.5286 57.1428 6.01992C52.9889 3.1813 46.0868 1.55708 39.3145 5.91811C44.7852 2.73326 57.5208 0.14668 56.6412 16.5776Z" fill="#00578A"/>
<path style="mix-blend-mode:multiply" opacity="0.29" d="M48.4875 45.6426C46.2541 53.6628 37.1416 66.439 33.1211 70.4161C33.1211 70.4161 42.8591 62.485 52.2398 48.7616C51.0784 47.6922 49.8276 46.5337 48.4875 45.6426Z" fill="#00578A"/>
</svg>
