<svg width="562" height="543" viewBox="0 0 562 543" fill="none" xmlns="http://www.w3.org/2000/svg">
<path d="M83.023 333.79C82.4125 318.587 94.1254 310.434 99.4477 332.783C104.77 355.132 112 405 112 405C112 405 83.9005 400.078 84.2057 398.083C84.5109 396.087 83.023 333.79 83.023 333.79Z" fill="#00578A"/>
<path d="M56.0278 297.227C55.2804 278.456 69.8072 268.474 76.3998 295.977C82.9925 323.479 92 385 92 385C92 385 57.1201 378.939 57.5034 376.477C57.8867 374.014 56.0278 297.227 56.0278 297.227Z" fill="#007D99"/>
<path d="M28.8712 270.289C28.0462 249.41 43.8703 238.269 51.0323 268.903C58.1944 299.538 68 368 68 368C68 368 22.5903 320.549 23.0028 317.854C23.4153 315.158 28.8712 270.289 28.8712 270.289Z" fill="#01A6A0"/>
<path d="M212.242 543C205.833 442.313 101.287 441.676 56.4041 405.965C11.5211 370.255 1.66085 279.102 4.4293 258.65C7.19775 238.197 18.0629 228.095 27.0888 256.66C36.1147 285.224 44.5528 336.667 78.6085 360.436C112.664 384.205 176.474 387.333 140.159 361.08C92.7541 326.81 100.963 293.687 112.223 286.76C120.834 281.463 140.993 318.546 169.076 333.691C197.159 348.836 239.172 360.75 258.608 407.928C280.703 461.559 212.242 543 212.242 543Z" fill="#00C6BF"/>
<path d="M425.298 44.762C394.356 23.6276 342.945 11.5347 292.5 44.004C272.049 63.4893 254.855 89.8928 243.266 124.182C243.266 124.182 183.959 58.8827 89.0709 94.4984C-5.81723 130.114 0.0718021 233 0.0718021 233C0.0718021 233 27.3774 149.221 118.687 143.914C209.996 138.606 257.539 226.64 257.539 226.64C257.539 226.64 269.133 137.45 351.94 116.22C428.308 96.716 474.266 156.746 454.951 231.465C487.862 155.419 474.474 78.3306 425.298 44.762Z" fill="#00578A"/>
<path d="M388 363.816C388 363.816 309.825 271.005 172 320.565C172 320.565 242.434 319.071 274.513 399.509C294.475 449.56 246.029 523 246.029 523C246.029 523 331.211 452.986 388 363.816Z" fill="#00578A"/>
<path d="M529.895 62.5754C483.164 -6.17488 366.356 -26.563 292.28 43.795C342.763 11.3963 394.212 23.4629 425.177 44.5513C474.447 78.047 487.712 154.892 454.929 230.886C452.911 238.593 450.327 246.142 447.197 253.469C415.626 327.761 377.953 375.045 377.953 375.045C322.827 458.264 244 524 244 524C549.324 396.07 609.997 180.52 529.895 62.5754Z" fill="#00C6BF"/>
<path style="mix-blend-mode:multiply" opacity="0.29" d="M420.691 123.126C461.584 148.226 462.33 198.95 454.06 231C486.801 155.025 473.451 78.1989 424.416 44.7117C393.564 23.6285 342.3 11.5649 292 43.9555C332.633 20.3007 427.224 1.08951 420.691 123.126Z" fill="#00578A"/>
<path style="mix-blend-mode:multiply" opacity="0.29" d="M360.131 339C343.542 398.568 275.861 493.461 246 523C246 523 318.327 464.094 388 362.165C379.374 354.223 370.084 345.619 360.131 339Z" fill="#00578A"/>
</svg>
