<svg width="21" height="19" viewBox="0 0 21 19" fill="none" xmlns="http://www.w3.org/2000/svg">
<g clip-path="url(#clip0_196_330)">
<path fill-rule="evenodd" clip-rule="evenodd" d="M4.5 17C5.88071 17 7 15.8807 7 14.5C7 13.1193 5.88071 12 4.5 12C3.11929 12 2 13.1193 2 14.5C2 15.8807 3.11929 17 4.5 17ZM4.5 19C6.98528 19 9 16.9853 9 14.5C9 12.0147 6.98528 10 4.5 10C2.01472 10 0 12.0147 0 14.5C0 16.9853 2.01472 19 4.5 19Z" fill="#4F4F4F"/>
<path fill-rule="evenodd" clip-rule="evenodd" d="M16.5 17C17.8807 17 19 15.8807 19 14.5C19 13.1193 17.8807 12 16.5 12C15.1193 12 14 13.1193 14 14.5C14 15.8807 15.1193 17 16.5 17ZM16.5 19C18.9853 19 21 16.9853 21 14.5C21 12.0147 18.9853 10 16.5 10C14.0147 10 12 12.0147 12 14.5C12 16.9853 14.0147 19 16.5 19Z" fill="#4F4F4F"/>
<path fill-rule="evenodd" clip-rule="evenodd" d="M13 15H8V13H13V15Z" fill="#4F4F4F"/>
<path fill-rule="evenodd" clip-rule="evenodd" d="M4.46154 2.15385C2.80469 2.15385 2 3.60032 2 5.38462V14H0V5.38462C0 2.41078 1.70012 0 4.46154 0H5.46154C6.01382 0 6.46154 0.482155 6.46154 1.07692C6.46154 1.67169 6.01382 2.15385 5.46154 2.15385H4.46154Z" fill="#4F4F4F"/>
<path fill-rule="evenodd" clip-rule="evenodd" d="M16.5381 2.15385C18.195 2.15385 18.9996 3.60032 18.9996 5.38462V14H20.9996V5.38462C20.9996 2.41078 19.2995 0 16.5381 0H15.5381C14.9858 0 14.5381 0.482155 14.5381 1.07692C14.5381 1.67169 14.9858 2.15385 15.5381 2.15385H16.5381Z" fill="#4F4F4F"/>
</g>
<defs>
<clipPath id="clip0_196_330">
<rect width="21" height="19" fill="white"/>
</clipPath>
</defs>
</svg>
