<svg width="26" height="26" viewBox="0 0 26 26" fill="none" xmlns="http://www.w3.org/2000/svg">
<rect width="26" height="26" rx="5.2" fill="#2787F5"/>
<path fill-rule="evenodd" clip-rule="evenodd" d="M6.85657 6.85706C5.84961 7.85806 5.84961 9.47872 5.84961 12.7141V13.2861C5.84961 16.5215 5.84961 18.1421 6.85657 19.1431C7.85757 20.1501 9.47823 20.1501 12.7136 20.1501H13.2856C16.521 20.1501 18.1417 20.1501 19.1427 19.1431C20.1496 18.1421 20.1496 16.5215 20.1496 13.2861V12.7141C20.1496 9.47872 20.1496 7.85806 19.1427 6.85706C18.1417 5.8501 16.521 5.8501 13.2856 5.8501H12.7136C9.47823 5.8501 7.85757 5.8501 6.85657 6.85706ZM8.26362 10.1998C8.34108 13.9178 10.2001 16.1522 13.4593 16.1522H13.644V14.0251C14.2189 14.0975 14.7596 14.3379 15.1984 14.7163C15.6372 15.0947 15.9546 15.5942 16.1107 16.1522H17.8029C17.629 15.5098 17.3208 14.9116 16.8986 14.397C16.4765 13.8824 15.9501 13.4633 15.354 13.1671C15.888 12.843 16.3493 12.4121 16.7092 11.9016C17.069 11.391 17.3197 10.8117 17.4454 10.1998H15.9082C15.5745 11.3796 14.5854 12.4521 13.644 12.5534V10.1998H12.1067V14.323C11.1534 14.0847 9.94983 12.9288 9.89621 10.1998H8.26362Z" fill="#FBFBFD"/>
</svg>
