<svg width="18" height="18" viewBox="0 0 18 18" fill="none" xmlns="http://www.w3.org/2000/svg">
<rect width="18" height="18" rx="3.6" fill="#25D366"/>
<path d="M11.2496 9.98997C11.1146 9.94497 10.5296 9.62997 10.3946 9.58497C10.2596 9.53997 10.2146 9.53997 10.1246 9.62997C10.0008 9.80381 9.86548 9.96917 9.71961 10.125C9.62961 10.215 9.58461 10.215 9.44961 10.17C9.07341 10.0433 8.73365 9.82713 8.45961 9.53997C8.18061 9.30209 7.95124 9.01155 7.78461 8.68497C7.69461 8.54997 7.78461 8.50497 7.82961 8.41497C7.9003 8.3492 7.96095 8.27339 8.00961 8.18997C8.05461 8.09997 8.09961 8.05497 8.14461 7.96497C8.18961 7.87497 8.14461 7.82997 8.14461 7.73997C8.14461 7.64997 7.87461 7.06497 7.73961 6.83997C7.60461 6.61497 7.55961 6.61497 7.46961 6.61497H7.24461C7.1267 6.62023 7.01473 6.66822 6.92961 6.74997C6.78167 6.8776 6.66439 7.03693 6.58648 7.21611C6.50858 7.3953 6.47205 7.58973 6.47961 7.78497C6.52084 8.245 6.69257 8.6837 6.97461 9.04947C7.48578 9.85934 8.22247 10.5022 9.09411 10.899C9.40911 11.034 9.63411 11.079 9.81411 11.169C10.0612 11.2482 10.3244 11.2637 10.5791 11.214C10.9225 11.1223 11.2242 10.9158 11.4341 10.629C11.491 10.4391 11.5213 10.2422 11.5241 10.044C11.4322 10.0448 11.3408 10.0295 11.2541 9.99897L11.2496 9.98997ZM8.99961 13.05C8.25205 13.059 7.51722 12.8561 6.88011 12.465L6.74511 12.375L5.16561 12.78L5.57511 11.25L5.48511 11.115C5.07375 10.4514 4.85558 9.68622 4.85511 8.90547C4.85422 8.08449 5.09691 7.28171 5.55246 6.59872C6.00802 5.91573 6.65596 5.38324 7.41427 5.06866C8.17259 4.75407 9.00718 4.67153 9.81243 4.83148C10.6177 4.99142 11.3574 5.38667 11.9379 5.96719C12.5184 6.54771 12.9137 7.2874 13.0736 8.09265C13.2335 8.89789 13.151 9.73249 12.8364 10.4908C12.5218 11.2491 11.9893 11.8971 11.3064 12.3526C10.6234 12.8082 9.82058 13.0509 8.99961 13.05ZM12.5141 5.43597C11.5692 4.52518 10.3119 4.01002 8.99961 3.99597C7.68678 3.99597 6.42773 4.51749 5.49943 5.44579C4.57112 6.3741 4.04961 7.63315 4.04961 8.94597C4.04939 9.81789 4.28244 10.674 4.72461 11.4255L3.99561 14.004L6.65511 13.329C7.38744 13.7278 8.21086 13.9294 9.04461 13.914C9.69465 13.914 10.3383 13.7859 10.9389 13.5372C11.5394 13.2884 12.0851 12.9238 12.5448 12.4642C13.0044 12.0045 13.369 11.4588 13.6178 10.8583C13.8666 10.2577 13.9946 9.61401 13.9946 8.96397C13.9627 7.64576 13.4302 6.38914 12.5051 5.44947" fill="#FBFBFD"/>
</svg>
